<svg class="sprite-svg" xmlns="http://www.w3.org/2000/svg">

	<symbol id="mail-icon" viewBox="0 0 510 510">
		<g>
			<g>
				<path d="M459,51H51C22.95,51,0,73.95,0,102v306c0,28.05,22.95,51,51,51h408c28.05,0,51-22.95,51-51V102
					C510,73.95,487.05,51,459,51z M459,153L255,280.5L51,153v-51l204,127.5L459,102V153z"/>
			</g>
		</g>
	</symbol>

	<symbol id="telephone-icon" viewBox="0 0 401.998 401.998">
		<g>
			<path d="M401.129,311.475c-1.137-3.426-8.371-8.473-21.697-15.129c-3.61-2.098-8.754-4.949-15.41-8.566
				c-6.662-3.617-12.709-6.95-18.13-9.996c-5.432-3.045-10.521-5.995-15.276-8.846c-0.76-0.571-3.139-2.234-7.136-5
				c-4.001-2.758-7.375-4.805-10.14-6.14c-2.759-1.327-5.473-1.995-8.138-1.995c-3.806,0-8.56,2.714-14.268,8.135
				c-5.708,5.428-10.944,11.324-15.7,17.706c-4.757,6.379-9.802,12.275-15.126,17.7c-5.332,5.427-9.713,8.138-13.135,8.138
				c-1.718,0-3.86-0.479-6.427-1.424c-2.566-0.951-4.518-1.766-5.858-2.423c-1.328-0.671-3.607-1.999-6.845-4.004
				c-3.244-1.999-5.048-3.094-5.428-3.285c-26.075-14.469-48.438-31.029-67.093-49.676c-18.649-18.658-35.211-41.019-49.676-67.097
				c-0.19-0.381-1.287-2.19-3.284-5.424c-2-3.237-3.333-5.518-3.999-6.854c-0.666-1.331-1.475-3.283-2.425-5.852
				s-1.427-4.709-1.427-6.424c0-3.424,2.713-7.804,8.138-13.134c5.424-5.327,11.326-10.373,17.7-15.128
				c6.379-4.755,12.275-9.991,17.701-15.699c5.424-5.711,8.136-10.467,8.136-14.273c0-2.663-0.666-5.378-1.997-8.137
				c-1.332-2.765-3.378-6.139-6.139-10.138c-2.762-3.997-4.427-6.374-4.999-7.139c-2.852-4.755-5.799-9.846-8.848-15.271
				c-3.049-5.424-6.377-11.47-9.995-18.131c-3.615-6.658-6.468-11.799-8.564-15.415C98.986,9.233,93.943,1.997,90.516,0.859
				C89.183,0.288,87.183,0,84.521,0c-5.142,0-11.85,0.95-20.129,2.856c-8.282,1.903-14.799,3.899-19.558,5.996
				c-9.517,3.995-19.604,15.605-30.264,34.826C4.863,61.566,0.01,79.271,0.01,96.78c0,5.135,0.333,10.131,0.999,14.989
				c0.666,4.853,1.856,10.326,3.571,16.418c1.712,6.09,3.093,10.614,4.137,13.56c1.045,2.948,2.996,8.229,5.852,15.845
				c2.852,7.614,4.567,12.275,5.138,13.988c6.661,18.654,14.56,35.307,23.695,49.964c15.03,24.362,35.541,49.539,61.521,75.521
				c25.981,25.98,51.153,46.49,75.517,61.526c14.655,9.134,31.314,17.032,49.965,23.698c1.714,0.568,6.375,2.279,13.986,5.141
				c7.614,2.854,12.897,4.805,15.845,5.852c2.949,1.048,7.474,2.43,13.559,4.145c6.098,1.715,11.566,2.905,16.419,3.576
				c4.856,0.657,9.853,0.996,14.989,0.996c17.508,0,35.214-4.856,53.105-14.562c19.219-10.656,30.826-20.745,34.823-30.269
				c2.102-4.754,4.093-11.273,5.996-19.555c1.909-8.278,2.857-14.985,2.857-20.126C401.99,314.814,401.703,312.819,401.129,311.475z"
				/>
		</g>
	</symbol>

	<symbol id="restaraun-icon" viewBox="0 0 463 463">
		<g>
			<g>
				<g>
					<path d="M463,187.5v-74c0-5.238-4.262-9.5-9.5-9.5H447V79.5c0-12.958-10.542-23.5-23.5-23.5H343v-0.5
						c0-12.958-10.542-23.5-23.5-23.5h-176C130.542,32,120,42.542,120,55.5V56H39.5C26.542,56,16,66.542,16,79.5V104H9.5
						c-5.238,0-9.5,4.262-9.5,9.5v74c0,12.376,6.37,23.288,16,29.644V416H7.5c-4.142,0-7.5,3.358-7.5,7.5c0,4.142,3.358,7.5,7.5,7.5
						h448c4.142,0,7.5-3.358,7.5-7.5c0-4.142-3.358-7.5-7.5-7.5H447V217.144C456.63,210.788,463,199.876,463,187.5z M135,55.5
						c0-4.687,3.813-8.5,8.5-8.5h176c4.687,0,8.5,3.813,8.5,8.5v7.961c0,0.013-0.002,0.025-0.002,0.039
						c0,0.006,0.001,0.013,0.001,0.02C327.988,68.197,324.18,72,319.5,72h-176c-4.687,0-8.5-3.813-8.5-8.5V55.5z M31,79.5
						c0-4.687,3.813-8.5,8.5-8.5h81.734c3.138,9.29,11.93,16,22.266,16h176c10.336,0,19.128-6.71,22.266-16H423.5
						c4.687,0,8.5,3.813,8.5,8.5V104H31V79.5z M392,119v68.5c0,11.304-9.196,20.5-20.5,20.5c-11.304,0-20.5-9.196-20.5-20.5V119H392z
						 M336,119v68.5c0,11.304-9.196,20.5-20.5,20.5c-11.304,0-20.5-9.196-20.5-20.5V119H336z M280,119v68.5
						c0,11.304-9.196,20.5-20.5,20.5c-11.304,0-20.5-9.196-20.5-20.5V119H280z M224,119v68.5c0,11.304-9.196,20.5-20.5,20.5
						s-20.5-9.196-20.5-20.5V119H224z M168,119v68.5c0,11.304-9.196,20.5-20.5,20.5s-20.5-9.196-20.5-20.5V119H168z M112,119v68.5
						c0,11.304-9.196,20.5-20.5,20.5S71,198.804,71,187.5V119H112z M15,187.5V119h41v68.5c0,11.304-9.196,20.5-20.5,20.5
						S15,198.804,15,187.5z M144,416H63v-17h81V416z M144,384H63V255h81V384z M432,416H159V247.5c0-4.142-3.358-7.5-7.5-7.5h-96
						c-4.142,0-7.5,3.358-7.5,7.5V416H31V222.705c1.475,0.188,2.975,0.295,4.5,0.295c11.368,0,21.498-5.378,28-13.716
						C70.002,217.622,80.132,223,91.5,223s21.498-5.378,28-13.716c6.502,8.338,16.632,13.716,28,13.716s21.498-5.378,28-13.716
						c6.502,8.338,16.632,13.716,28,13.716s21.498-5.378,28-13.716c6.502,8.338,16.632,13.716,28,13.716s21.498-5.378,28-13.716
						c6.502,8.338,16.632,13.716,28,13.716c11.368,0,21.498-5.378,28-13.716c6.502,8.338,16.632,13.716,28,13.716
						c11.368,0,21.498-5.378,28-13.716c6.502,8.338,16.632,13.716,28,13.716c1.525,0,3.025-0.107,4.5-0.295V416z M427.5,208
						c-11.304,0-20.5-9.196-20.5-20.5V119h41v68.5C448,198.804,438.804,208,427.5,208z"/>
					<path d="M407.5,240h-224c-4.142,0-7.5,3.358-7.5,7.5v144c0,4.142,3.358,7.5,7.5,7.5h224c4.142,0,7.5-3.358,7.5-7.5v-144
						C415,243.358,411.642,240,407.5,240z M400,384h-49v-25h24.5c4.142,0,7.5-3.358,7.5-7.5c0-4.142-3.358-7.5-7.5-7.5h-64
						c-4.142,0-7.5,3.358-7.5,7.5c0,4.142,3.358,7.5,7.5,7.5H336v25h-81v-25h24.5c4.142,0,7.5-3.358,7.5-7.5
						c0-4.142-3.358-7.5-7.5-7.5h-64c-4.142,0-7.5,3.358-7.5,7.5c0,4.142,3.358,7.5,7.5,7.5H240v25h-49V255h49v9.909
						c-13.759,3.375-24,15.806-24,30.591c0,4.142,3.358,7.5,7.5,7.5H240v0.5c0,4.142,3.358,7.5,7.5,7.5c4.142,0,7.5-3.358,7.5-7.5V303
						h16.5c4.142,0,7.5-3.358,7.5-7.5c0-14.785-10.241-27.216-24-30.591V255h81v9.909c-13.759,3.375-24,15.806-24,30.591
						c0,4.142,3.358,7.5,7.5,7.5H336v0.5c0,4.142,3.358,7.5,7.5,7.5c4.142,0,7.5-3.358,7.5-7.5V303h16.5c4.142,0,7.5-3.358,7.5-7.5
						c0-14.785-10.241-27.216-24-30.591V255h49V384z M247.5,279c6.4,0,11.959,3.662,14.695,9h-29.39
						C235.54,282.662,241.1,279,247.5,279z M343.5,279c6.4,0,11.959,3.662,14.695,9h-29.39C331.54,282.662,337.1,279,343.5,279z"/>
					<path d="M127.5,343c4.142,0,7.5-3.358,7.5-7.5v-16c0-4.142-3.358-7.5-7.5-7.5c-4.142,0-7.5,3.358-7.5,7.5v16
						C120,339.642,123.358,343,127.5,343z"/>
				</g>
			</g>
		</g>
	</symbol>

	<symbol id="student-icon" viewBox="0 0 512.005 512.005">
		<g>
			<g>
				<g>
					<path d="M307.204,255.997c17.237,0,31.394-12.894,33.664-29.525l31.189-23.381c3.772-2.825,4.54-8.175,1.707-11.947
						c-2.825-3.772-8.175-4.548-11.947-1.707l-21.751,16.316c-3.251-10.402-12.86-18.022-24.328-18.022h-34.133
						c-14.114,0-25.6,11.486-25.6,25.6c0-14.114-11.486-25.6-25.6-25.6H196.27c-11.469,0-21.077,7.62-24.329,18.022l-21.751-16.316
						c-3.763-2.825-9.122-2.057-11.947,1.707c-2.833,3.772-2.065,9.122,1.707,11.947l31.189,23.381
						c2.27,16.631,16.418,29.525,33.664,29.525h17.067c18.825,0,34.133-15.309,34.133-34.133c0,18.825,15.309,34.133,34.133,34.133
						H307.204z M238.937,221.864c0,9.412-7.663,17.067-17.067,17.067h-17.067c-9.404,0-17.067-7.654-17.067-17.067v-8.533
						c0-4.702,3.823-8.533,8.533-8.533h34.133c4.71,0,8.533,3.831,8.533,8.533V221.864z M273.07,221.864v-8.533
						c0-4.702,3.823-8.533,8.533-8.533h34.133c4.71,0,8.533,3.831,8.533,8.533v8.533c0,9.412-7.663,17.067-17.067,17.067h-17.067
						C280.733,238.93,273.07,231.276,273.07,221.864z"/>
					<path d="M511.748,501.39l-8.721-34.756c-4.378-13.158-30.285-55.484-178.756-56.636v-8.934c0-4.71-3.814-8.533-8.533-8.533
						s-8.533,3.823-8.533,8.533v17.067c0,0.06,0.034,0.111,0.034,0.171c0,0.051-0.034,0.094-0.034,0.154
						c-0.034,5.205-1.749,50.876-51.2,50.876c-49.451,0-51.166-45.986-51.2-51.2v-17.067c0-4.71-3.814-8.533-8.533-8.533
						s-8.533,3.823-8.533,8.533v8.619C77.162,410.553,21.789,428.2,8.793,467.257L0.26,501.39c-1.152,4.574,1.638,9.207,6.212,10.351
						c4.557,1.161,9.199-1.638,10.342-6.204l8.346-33.51c9.916-29.739,63.317-44.595,163.14-45.338
						c3.098,24.431,19.703,59.708,67.703,59.708c47.974,0,64.589-35.063,67.703-59.366c116.958,0.862,157.619,28.467,162.953,44.373
						l8.533,34.133c0.973,3.874,4.446,6.46,8.269,6.46c0.683,0,1.382-0.077,2.074-0.256
						C510.109,510.597,512.891,505.964,511.748,501.39z"/>
					<path d="M58.636,42.595l196.267,25.6c0.367,0.043,0.734,0.068,1.101,0.068s0.734-0.026,1.101-0.068L443.737,43.85v29.628
						c-5.35,6.016-17.067,21.026-17.067,37.453c0,18.782,15.309,25.6,25.6,25.6s25.6-6.818,25.6-25.6
						c0-16.427-11.716-31.437-17.067-37.453V34.13c0-1.126-0.239-2.193-0.64-3.183c-0.145-0.35-0.393-0.623-0.58-0.947
						c-0.333-0.597-0.666-1.186-1.126-1.681c-0.299-0.316-0.657-0.529-0.998-0.785c-0.486-0.393-0.964-0.768-1.527-1.041
						c-0.418-0.205-0.862-0.29-1.314-0.418c-0.418-0.128-0.794-0.35-1.246-0.41l-196.267-25.6c-0.734-0.085-1.468-0.085-2.202,0
						l-196.267,25.6c-4.25,0.555-7.432,4.181-7.432,8.465C51.204,38.414,54.387,42.041,58.636,42.595z M460.804,110.93
						c0,6.81-4.617,8.405-8.533,8.533c-3.917-0.128-8.533-1.724-8.533-8.533c0-7.083,4.352-14.985,8.533-20.813
						C456.452,95.946,460.804,103.848,460.804,110.93z M256.004,17.132L386.299,34.13L256.004,51.129L125.708,34.13L256.004,17.132z"
						/>
					<path d="M275.673,309.603c-0.273,0.247-6.707,6.127-19.669,6.127c-12.774,0-19.209-5.709-19.652-6.118
						c-3.319-3.251-8.67-3.226-11.981,0.085c-3.337,3.337-3.337,8.73,0,12.066c1.126,1.126,11.605,11.034,31.633,11.034
						s30.507-9.907,31.633-11.034c3.294-3.294,3.285-8.567,0.051-11.913C284.437,306.506,279.078,306.412,275.673,309.603z"/>
					<path d="M119.47,172.123c-9.933,3.524-17.067,13.013-17.067,24.141v34.133c0,11.904,8.166,21.939,19.2,24.789
						c4.565,13.466,17.178,49.98,24.371,64.358c13.551,27.11,51.977,72.986,110.029,72.986c58.052,0,96.478-45.875,110.029-72.986
						c7.194-14.379,19.806-50.893,24.371-64.358c11.034-2.85,19.2-12.885,19.2-24.789v-34.133c0-11.127-7.134-20.617-17.067-24.141
						v-9.992c0-4.71-3.814-8.533-8.533-8.533s-8.533,3.823-8.533,8.533v17.067c0,4.71,3.814,8.533,8.533,8.533
						c4.71,0,8.533,3.831,8.533,8.533v34.133c0,4.702-3.823,8.533-8.533,8.533c-3.678,0-6.938,2.347-8.09,5.837
						c-0.179,0.503-16.981,50.816-25.139,67.149c-1.306,2.594-32.495,63.548-94.771,63.548s-93.466-60.954-94.771-63.548
						c-8.166-16.333-24.96-66.645-25.139-67.149c-1.161-3.49-4.412-5.837-8.09-5.837c-4.71,0-8.533-3.831-8.533-8.533v-34.133
						c0-4.702,3.823-8.533,8.533-8.533c4.719,0,8.533-3.823,8.533-8.533V162.13c0-4.71-3.814-8.533-8.533-8.533
						s-8.533,3.823-8.533,8.533V172.123z"/>
					<path d="M128.004,59.73c-4.719,0-8.533,3.823-8.533,8.533v59.733c0,3.234,1.826,6.187,4.719,7.637
						c2.167,1.075,53.896,26.496,131.814,26.496s129.647-25.421,131.814-26.496c2.893-1.451,4.719-4.403,4.719-7.637V68.264
						c0-4.71-3.814-8.533-8.533-8.533s-8.533,3.823-8.533,8.533v54.212c-14.114,5.982-58.778,22.588-119.467,22.588
						s-105.353-16.606-119.467-22.588V68.264C136.537,63.553,132.723,59.73,128.004,59.73z"/>
				</g>
			</g>
		</g>
	</symbol>

	<symbol id="document-icon" viewBox="0 0 256.61 256.61">
		<g>
			<g id="_x38_7_36_">
				<g>
					<path d="M60.859,112.533c-6.853,0-6.853,10.646,0,10.646c27.294,0,54.583,0,81.875,0c6.865,0,6.865-10.646,0-10.646
						C115.442,112.533,88.153,112.533,60.859,112.533z"/>
					<path d="M142.734,137.704c-27.292,0-54.581,0-81.875,0c-6.853,0-6.853,10.634,0,10.634c27.294,0,54.583,0,81.875,0
						C149.6,148.338,149.6,137.704,142.734,137.704z"/>
					<path d="M142.734,161.018c-27.292,0-54.581,0-81.875,0c-6.853,0-6.853,10.633,0,10.633c27.294,0,54.583,0,81.875,0
						C149.6,171.65,149.6,161.018,142.734,161.018z"/>
					<path d="M142.734,186.184c-27.292,0-54.581,0-81.875,0c-6.853,0-6.853,10.629,0,10.629c27.294,0,54.583,0,81.875,0
						C149.6,196.812,149.6,186.184,142.734,186.184z"/>
					<path d="M141.17,209.934c-27.302,0-54.601,0-81.89,0c-6.848,0-6.848,10.633,0,10.633c27.289,0,54.588,0,81.89,0
						C148.015,220.566,148.015,209.934,141.17,209.934z"/>
					<path d="M25.362,58.087V256.61h152.877V85.63l-28.406-27.543H25.362z M165.026,243.393H38.585V71.305h104.443v20.97h21.988
						v151.118H165.026z"/>
					<polygon points="51.204,27.667 51.204,50.645 64.427,50.645 64.427,40.88 168.875,40.88 168.875,61.85 190.868,61.85 
						190.868,212.971 185.059,212.971 185.059,226.188 204.086,226.188 204.086,55.205 175.68,27.667 			"/>
				</g>
			</g>
		</g>
	</symbol>

	<symbol id="work-icon" viewBox="0 0 480 480">
		<g>
			<g>
				<path d="M447.2,416.728c5.661-7.002,8.765-15.724,8.8-24.728v-16c0-22.091-17.909-40-40-40c-22.091,0-40,17.909-40,40v16
					c0.035,9.004,3.139,17.726,8.8,24.728c-9.933,1.847-18.796,7.394-24.8,15.52c-6.004-8.126-14.867-13.673-24.8-15.52
					c5.661-7.002,8.765-15.724,8.8-24.728v-16c0-22.091-17.909-40-40-40c-22.091,0-40,17.909-40,40v16
					c0.035,9.004,3.139,17.726,8.8,24.728c-9.933,1.847-18.796,7.394-24.8,15.52c-6.004-8.126-14.867-13.673-24.8-15.52
					c5.661-7.002,8.765-15.724,8.8-24.728v-16c0-22.091-17.909-40-40-40s-40,17.909-40,40v16c0.035,9.004,3.139,17.726,8.8,24.728
					c-18.971,3.471-32.764,19.986-32.8,39.272v24h16v-24c0-13.255,10.745-24,24-24h48c13.255,0,24,10.745,24,24v24h16v-24
					c0-13.255,10.745-24,24-24h48c13.255,0,24,10.745,24,24v24h16v-24c0-13.255,10.745-24,24-24h48c13.255,0,24,10.745,24,24v24h16
					v-24C479.964,436.714,466.171,420.199,447.2,416.728z M216,392c0,13.255-10.745,24-24,24s-24-10.745-24-24v-16
					c0-13.255,10.745-24,24-24s24,10.745,24,24V392z M328,392c0,13.255-10.745,24-24,24s-24-10.745-24-24v-16
					c0-13.255,10.745-24,24-24s24,10.745,24,24V392z M440,392c0,13.255-10.745,24-24,24s-24-10.745-24-24v-16
					c0-13.255,10.745-24,24-24s24,10.745,24,24V392z"/>
			</g>
		</g>
		<g>
			<g>
				<path d="M194.926,160.558c-0.932-0.368-1.924-0.557-2.926-0.558h-32c-3.364-0.001-6.369,2.103-7.52,5.264l-8.48,23.32l-0.28-0.76
					C137.614,171.146,121.761,160.04,104,160h-0.208c5.294-6.883,8.179-15.316,8.208-24v-16c0-22.091-17.909-40-40-40
					s-40,17.909-40,40v16c0.029,8.684,2.914,17.117,8.208,24H40c-22.08,0.026-39.974,17.92-40,40v96c0,4.418,3.582,8,8,8h24v77.6
					l-14.656,21.96c-2.452,3.675-1.461,8.643,2.215,11.095C20.874,415.532,22.419,416,24,416h96c4.418,0.001,8.001-3.581,8.001-7.999
					c0-1.581-0.468-3.126-1.345-4.441L112,381.6V233.888l2.016,4c8.084,16.157,27.734,22.702,43.891,14.618
					c7.16-3.582,12.757-9.666,15.733-17.098l12.992-32.472l12.8-32C201.054,166.826,199.036,162.18,194.926,160.558z M48,120
					c0-13.255,10.745-24,24-24s24,10.745,24,24v16c0,13.255-10.745,24-24,24s-24-10.745-24-24V120z M32,288H16v-16h16V288z M80,400
					v-96H64v96H38.952l7.704-11.56c0.874-1.316,1.341-2.86,1.344-4.44v-96h48v96c0.003,1.58,0.47,3.124,1.344,4.44l7.704,11.56H80z
					 M158.784,229.504c-3.434,8.567-13.163,12.729-21.73,9.295c-3.793-1.52-6.897-4.377-8.726-8.031L111.2,196.424
					c-1.925-3.977-6.71-5.64-10.687-3.714c-2.79,1.351-4.548,4.191-4.513,7.29v72H48v-72c0-4.418-3.582-8-8-8s-8,3.582-8,8v56H16v-56
					c0-13.255,10.745-24,24-24h24v80h16v-80h24c11.036,0.022,20.888,6.923,24.68,17.288l7.8,21.448
					c1.507,4.153,6.096,6.298,10.249,4.791c2.228-0.808,3.982-2.563,4.791-4.791l2.448-6.736h13.416L158.784,229.504z M173.784,192
					h-14l5.816-16h14.584L173.784,192z"/>
			</g>
		</g>
		<g>
			<g>
				<path d="M472,48c4.418,0,8-3.582,8-8V8c0-4.418-3.582-8-8-8H136c-4.418,0-8,3.582-8,8v32c0,4.418,3.582,8,8,8h8v96h16V48h288v176
					H192v16h104v35.36l-52,29.696l7.936,13.888L296,293.784V320h16v-26.216l44,25.16l7.936-13.888L312,275.36V240h168v-16h-16V48H472z
					 M144,32V16h320v16H144z"/>
			</g>
		</g>
		<g>
			<g>
				<path d="M393.944,88.24l-32-8l-3.888,15.52l14.984,3.744l-60.72,42.504L277,113.752c-2.797-2.234-6.737-2.339-9.648-0.256l-56,40
					l9.296,13.008l51.08-36.48L307,158.248c2.776,2.225,6.688,2.349,9.6,0.304l67.4-47.184V128h16V96
					C400,92.331,397.503,89.132,393.944,88.24z"/>
			</g>
		</g>
	</symbol>

	<symbol id="pin-icon" width="24" height="24" viewBox="0 0 512 512">
		<g>
			<g>
				<path d="M256,0C161.896,0,85.333,76.563,85.333,170.667c0,28.25,7.063,56.26,20.49,81.104L246.667,506.5
					c1.875,3.396,5.448,5.5,9.333,5.5s7.458-2.104,9.333-5.5l140.896-254.813c13.375-24.76,20.438-52.771,20.438-81.021
					C426.667,76.563,350.104,0,256,0z M256,256c-47.052,0-85.333-38.281-85.333-85.333c0-47.052,38.281-85.333,85.333-85.333
					s85.333,38.281,85.333,85.333C341.333,217.719,303.052,256,256,256z"/>
			</g>
		</g>
	</symbol>
	
	<symbol id="people-group" viewBox="0 80 500 350">
		<g>
			<g>
			<path d="M344.214,276.755l-43.582-19.37c-3.079-1.368-5.067-4.429-5.067-7.797V237.62c14.64-11.665,24.05-29.628,24.05-49.758
				v-16.847c4.823-2.665,8.016-7.815,8.016-13.583v-1.635c0-35.076-28.537-63.613-63.613-63.613h-16.032
				c-35.076,0-63.613,28.537-63.613,63.613v14.835c0,5.07,2.182,9.663,5.985,12.602c0.645,0.498,1.324,0.936,2.031,1.315v3.312
				c0,20.13,9.409,38.093,24.048,49.757v11.969c0,3.368-1.989,6.429-5.067,7.797l-43.582,19.37
				c-14.273,6.343-23.496,20.535-23.496,36.154v99.404c0,4.142,3.358,7.5,7.5,7.5c4.142,0,7.5-3.358,7.5-7.5v-99.403
				c0-0.869,0.062-1.728,0.152-2.58l20.082,20.082c3.125,3.126,4.847,7.281,4.847,11.702v70.2c0,4.142,3.358,7.5,7.5,7.5
				c4.142,0,7.5-3.358,7.5-7.5v-70.2c0-8.427-3.281-16.349-9.24-22.308l-23.941-23.942c2.157-2.238,4.745-4.093,7.689-5.402
				l42.847-19.043l31.775,31.775v109.119c0,4.142,3.358,7.5,7.5,7.5s7.5-3.358,7.5-7.5V303.194l31.775-31.775l42.846,19.042
				c2.944,1.309,5.532,3.164,7.689,5.403l-23.941,23.941c-5.959,5.959-9.24,13.881-9.24,22.308v70.2c0,4.142,3.358,7.5,7.5,7.5
				c4.142,0,7.5-3.358,7.5-7.5v-70.2c0-4.42,1.721-8.576,4.847-11.702l20.081-20.081c0.09,0.852,0.152,1.709,0.152,2.578v99.404
				c0,4.142,3.358,7.5,7.5,7.5c4.142,0,7.5-3.358,7.5-7.5v-99.403C367.709,297.29,358.487,283.098,344.214,276.755z M256,289.481
				l-27.881-27.882c2.12-3.567,3.317-7.694,3.317-12.011v-3.052c7.563,3.178,15.862,4.939,24.565,4.939s17.001-1.76,24.563-4.938
				v3.051c0,4.318,1.197,8.444,3.318,12.012L256,289.481z M256.001,236.474c-26.805,0.001-48.613-21.807-48.613-48.612v-3.373
				c4.68-1.855,9.248-4.807,13.621-8.842c3.043-2.809,3.234-7.554,0.424-10.598c-2.809-3.043-7.553-3.234-10.598-0.425
				c-3.751,3.463-7.499,5.7-11.137,6.65c-0.088,0.023-0.153,0.033-0.199,0.037c-0.054-0.105-0.127-0.325-0.127-0.678v-14.835
				c0-26.805,21.808-48.613,48.613-48.613h16.032c26.806,0,48.613,21.808,48.613,48.613v1.635c0,0.243-0.146,0.454-0.338,0.492
				c-44.911,8.87-67.437-7.847-75.037-15.447c-2.929-2.929-7.678-2.929-10.606,0c-2.929,2.929-2.929,7.678,0,10.606
				c23.29,23.29,57.275,23.71,77.965,21.224v13.553C304.614,214.666,282.806,236.474,256.001,236.474z"/>
			</g>
		</g>
		<g>
			<g>
				<path d="M135.242,235.961v-16.035c0-19.566-10.168-36.79-25.489-46.702c0.946-3.035,1.44-6.214,1.44-9.411
				c0-17.396-14.152-31.548-31.548-31.548s-31.548,14.153-31.548,31.548c0,3.237,0.49,6.385,1.438,9.413
				c-15.32,9.911-25.487,27.135-25.487,46.7v16.032c0,18.947,9.533,35.701,24.048,45.743v16.493c0,3.253-1.807,6.177-4.716,7.632
				l-25.941,12.97C6.682,324.176,0,334.988,0,347.015v65.299c0,4.142,3.358,7.5,7.5,7.5s7.5-3.358,7.5-7.5v-62.055l12.218,12.218
				c3.125,3.126,4.847,7.281,4.847,11.702v38.135c0,4.142,3.358,7.5,7.5,7.5c4.142,0,7.5-3.358,7.5-7.5v-38.135
				c0-8.427-3.282-16.349-9.24-22.308L20.82,334.866c-0.082-0.082-0.17-0.153-0.254-0.23c1.067-0.942,2.264-1.762,3.582-2.422
				l25.941-12.97c1.329-0.665,2.566-1.45,3.719-2.322l18.337,18.338v77.055c0,4.142,3.358,7.5,7.5,7.5c4.142,0,7.5-3.358,7.5-7.5
				v-77.056l18.338-18.338c1.154,0.873,2.39,1.658,3.719,2.322l7.153,3.577c1.077,0.539,2.221,0.794,3.349,0.794
				c2.751,0,5.4-1.52,6.714-4.147c1.853-3.705,0.351-8.21-3.354-10.062l-7.153-3.577c-2.91-1.455-4.717-4.379-4.717-7.631v-16.493
				C125.709,271.662,135.242,254.907,135.242,235.961z M79.645,147.265c9.125,0,16.548,7.424,16.548,16.548
				c0,1.005-0.09,1.99-0.262,2.955c-5.154-1.582-10.621-2.439-16.286-2.439c-5.657,0-11.117,0.854-16.263,2.432
				c-0.173-0.965-0.285-1.945-0.285-2.948C63.097,154.688,70.52,147.265,79.645,147.265z M79.645,179.33
				c22.385,0,40.597,18.212,40.597,40.597v2.718c-31.225,9.56-49.834-14.193-50.629-15.234c-1.305-1.739-3.3-2.827-5.468-2.981
				c-2.168-0.152-4.298,0.641-5.835,2.178c-7.159,7.159-14.171,10.612-19.235,12.279C39.63,196.981,57.609,179.33,79.645,179.33z
				M79.645,321.545l-17.331-17.331c0.506-1.934,0.783-3.95,0.783-6.019v-9.155c5.229,1.634,10.788,2.515,16.548,2.515
				s11.319-0.881,16.548-2.515v9.155c0,2.069,0.277,4.086,0.783,6.019L79.645,321.545z M79.645,276.555
				c-22.385,0-40.597-18.212-40.597-40.597v-1.554c5.981-1.374,14.849-4.567,24.1-12.007c3.273,3.088,7.951,6.876,13.908,10.125
				c7.046,3.843,16.777,7.398,28.663,7.398c4.517,0,9.35-0.525,14.459-1.731C119.015,259.541,101.281,276.555,79.645,276.555z"/>
			</g>
		</g>
		<g>
			<g>
				<path d="M494.561,302.765l-41.973-20.987c-2.909-1.455-4.716-4.379-4.716-7.631v-10.629c9.825-8.723,16.032-21.435,16.032-35.575
				v-8.537c0.173,0,0.343,0.005,0.516,0.005c4.142,0,7.5-3.358,7.5-7.5v-16.032c0-26.236-21.345-47.581-47.581-47.581h-16.032
				c-26.236,0-47.581,21.345-47.581,47.581v16.032c0,4.142,3.358,7.5,7.5,7.5c0.062,0,0.242-0.002,0.516-0.013v8.545
				c0,14.141,6.208,26.853,16.033,35.576v10.629c0,3.253-1.807,6.177-4.717,7.631c-3.705,1.852-5.207,6.357-3.354,10.062
				c1.314,2.628,3.963,4.148,6.714,4.148c1.127,0,2.271-0.255,3.348-0.793c1.329-0.665,2.566-1.45,3.719-2.322l18.338,18.338v101.103
				c0,4.142,3.358,7.5,7.5,7.5c4.142,0,7.5-3.358,7.5-7.5V311.21l18.337-18.338c1.154,0.873,2.39,1.658,3.719,2.322l40.615,20.308
				l-12.319,12.319c-5.958,5.959-9.24,13.881-9.24,22.308v62.184c0,4.142,3.358,7.5,7.5,7.5c4.142,0,7.5-3.358,7.5-7.5v-62.184
				c0-4.42,1.721-8.576,4.847-11.702l11.669-11.669c0.354,1.357,0.548,2.772,0.548,4.224v81.331c0,4.142,3.358,7.5,7.5,7.5
				c4.142,0,7.5-3.358,7.5-7.5v-81.331C512,318.956,505.318,308.144,494.561,302.765z M375.725,202.868v-6.99h0.001
				c0-17.965,14.616-32.581,32.581-32.581h16.032c17.965,0,32.581,14.616,32.581,32.581v8.331
				c-32.603-1.759-52.278-14.446-52.469-14.571c-1.269-0.846-2.717-1.26-4.158-1.26c-1.936,0-3.856,0.748-5.306,2.197
				C387.811,197.751,380.78,201.205,375.725,202.868z M416.323,297.497l-17.331-17.331c0.506-1.934,0.783-3.95,0.783-6.019v-1.597
				c5.156,1.919,10.731,2.973,16.548,2.973c5.817,0,11.392-1.054,16.548-2.973v1.597c0,2.069,0.276,4.085,0.783,6.019
				L416.323,297.497z M416.323,260.524c-17.965,0-32.581-14.615-32.581-32.581v-12.091h0c5.253-2.099,11.373-5.436,17.601-10.742
				c7.876,4.098,24.354,11.181,47.561,13.521v9.312C448.904,245.908,434.288,260.524,416.323,260.524z"/>
			</g>
		</g>
	</symbol>

</svg>