<svg class="sprite-svg" xmlns="http://www.w3.org/2000/svg">

	<symbol id="businessman-icon" viewBox="0 0 480 480">
		<g>
			<g>
				<path d="M304,128c-13.255,0-24,10.745-24,24v8h16v-8c0-4.418,3.582-8,8-8s8,3.582,8,8v8h16v-8C328,138.745,317.255,128,304,128z"
					/>
			</g>
		</g>
		<g>
			<g>
				<path d="M384,128c-13.255,0-24,10.745-24,24v8h16v-8c0-4.418,3.582-8,8-8s8,3.582,8,8v8h16v-8C408,138.745,397.255,128,384,128z"
					/>
			</g>
		</g>
		<g>
			<g>
				<path d="M360,184v8c0,8.837-7.163,16-16,16s-16-7.163-16-16v-8h-16v8c0,17.673,14.327,32,32,32c17.673,0,32-14.327,32-32v-8H360z"
					/>
			</g>
		</g>
		<g>
			<g>
				<path d="M424,256h-40v-8.8c28.951-13.13,49.444-39.837,54.632-71.2H448c13.255,0,24-10.745,24-24s-10.745-24-24-24h-8V0H320
					c-39.746,0.044-71.956,32.254-72,72v56h-8c-13.255,0-24,10.745-24,24s10.745,24,24,24h9.368
					c5.188,31.363,25.681,58.07,54.632,71.2v8.8h-40c-30.913,0.035-55.965,25.087-56,56v8h-48v-8c0-13.255-10.745-24-24-24h-32
					c-13.255,0-24,10.745-24,24v8H8c-4.418,0-8,3.582-8,8v144c0,4.418,3.582,8,8,8h464c4.418,0,8-3.582,8-8V312
					C479.965,281.087,454.913,256.035,424,256z M440,144h8c4.418,0,8,3.582,8,8s-3.582,8-8,8h-8V144z M248,160h-8
					c-4.418,0-8-3.582-8-8s3.582-8,8-8h8V160z M408,272l-32.864,43.824l-1.48-1.48L355.312,296l24-24H408z M356.688,320l-8,8h-9.376
					l-8-8L344,307.312L356.688,320z M331.312,272h25.376L344,284.688L331.312,272z M264,72c0.035-30.913,25.087-55.965,56-56h104v48
					h-72v8c0,13.255-10.745,24-24,24h-64V72z M264,160v-48h64c19.002-0.021,35.375-13.387,39.2-32H424v80
					c0.109,32.976-20.144,62.599-50.912,74.464c-3.067,1.199-5.087,4.155-5.088,7.448V256h-48v-14.088
					c-0.001-3.293-2.021-6.249-5.088-7.448C284.144,222.599,263.891,192.976,264,160z M308.688,272l24,24l-18.344,18.344l-1.48,1.48
					L280,272H308.688z M96,312c0-4.418,3.582-8,8-8h32c4.418,0,8,3.582,8,8v8H96V312z M224,464H16v-56h80v24c0,4.418,3.582,8,8,8h32
					c4.418,0,8-3.582,8-8v-24h80V464z M112,424v-16h16v16H112z M224,392H16v-56h208V392z M240,464V328c0-4.418-3.582-8-8-8h-8v-8
					c0.067-20.587,15.779-37.747,36.28-39.624L305.6,332.8c1.387,1.863,3.516,3.03,5.832,3.2H312c2.122,0,4.156-0.844,5.656-2.344
					l2.344-2.344l7.432,7.432l-15.32,91.936c-0.362,2.158,0.176,4.369,1.488,6.12L334,464H240z M328.456,429.936L342.776,344h2.448
					l14.32,85.936L344,450.664L328.456,429.936z M464,464H354l20.4-27.2c1.312-1.751,1.85-3.962,1.488-6.12l-15.32-91.936l7.432-7.432
					l2.344,2.344c1.5,1.5,3.534,2.344,5.656,2.344h0.568c2.316-0.17,4.445-1.337,5.832-3.2l45.32-60.424
					c20.501,1.877,36.213,19.037,36.28,39.624V464z"/>
			</g>
		</g>
	</symbol>

	<symbol id="discount-icon" viewBox="-4 0 511 512">
		<path d="m252.691406 0c12.023438 0 20.320313 9.480469 28.539063 18.871094 4.867187 5.5625 9.691406 11.074218 12.644531 11.609375 3.023438.550781 9.515625-3.054688 15.96875-6.640625 10.675781-5.933594 21.292969-11.828125 32.164062-7.78125 10.992188 4.09375 15.109376 15.617187 19.210938 27.101562 2.429688 6.796875 4.847656 13.570313 7.160156 14.925782 2.316406 1.355468 9.4375.109374 16.546875-1.132813 11.9375-2.089844 23.859375-4.175781 32.710938 3.289063 8.804687 7.429687 8.75 19.558593 8.695312 31.6875-.03125 7.160156-.066406 14.320312 1.664063 16.371093 1.730468 2.054688 8.785156 3.242188 15.84375 4.429688 11.980468 2.019531 23.980468 4.039062 29.851562 14.058593 5.855469 9.996094 1.816406 21.398438-2.238281 32.839844-2.433594 6.863282-4.875 13.75-3.890625 16.394532.984375 2.636718 7.230469 6.269531 13.507812 9.921874 10.640626 6.1875 21.34375 12.410157 23.464844 24.09375 2.085938 11.484376-5.503906 21.035157-13.160156 30.675782-4.695312 5.914062-9.433594 11.878906-9.433594 15.285156 0 3.410156 4.738282 9.375 9.433594 15.289062 7.65625 9.636719 15.246094 19.1875 13.160156 30.671876-2.121094 11.683593-12.824218 17.910156-23.464844 24.097656-6.277343 3.648437-12.523437 7.28125-13.507812 9.921875-.984375 2.644531 1.457031 9.53125 3.890625 16.394531 4.054687 11.441406 8.09375 22.84375 2.238281 32.835938-5.871094 10.023437-17.871094 12.042968-29.851562 14.058593-7.058594 1.191407-14.113282 2.378907-15.84375 4.429688-1.730469 2.054687-1.695313 9.214843-1.664063 16.375.054688 12.128906.109375 24.257812-8.695312 31.6875-8.851563 7.464843-20.773438 5.378906-32.710938 3.289062-7.109375-1.242187-14.230469-2.488281-16.546875-1.132812-2.3125 1.355469-4.730468 8.128906-7.160156 14.925781-4.101562 11.484375-8.21875 23.007812-19.210938 27.101562-10.871093 4.046876-21.488281-1.851562-32.164062-7.78125-6.453125-3.585937-12.941406-7.191406-15.96875-6.640624-2.953125.535156-7.777344 6.046874-12.644531 11.605468-8.21875 9.390625-16.515625 18.871094-28.539063 18.871094-12.019531 0-20.316406-9.480469-28.539062-18.871094-4.863282-5.5625-9.6875-11.074218-12.644532-11.609375-3.023437-.550781-9.511718 3.054688-15.96875 6.640625-10.675781 5.933594-21.289062 11.828125-32.160156 7.78125-10.996094-4.09375-15.109375-15.617187-19.214844-27.101562-2.425781-6.792969-4.847656-13.570313-7.160156-14.925782-2.3125-1.355468-9.433594-.109374-16.546875 1.136719-11.9375 2.085938-23.859375 4.171875-32.710937-3.292969-8.804688-7.429687-8.75-19.558593-8.695313-31.6875.035157-7.160156.066407-14.320312-1.664062-16.371093-1.730469-2.054688-8.78125-3.242188-15.84375-4.429688-11.980469-2.015625-23.980469-4.039062-29.851563-14.058593-5.851562-9.996094-1.8125-21.398438 2.242188-32.839844 2.433594-6.863282 4.871094-13.75 3.886718-16.394532-.980468-2.636718-7.226562-6.269531-13.507812-9.921874-10.636719-6.1875-21.34375-12.410157-23.460938-24.09375-2.085937-11.484376 5.5-21.039063 13.15625-30.675782 4.699219-5.914062 9.4375-11.878906 9.4375-15.289062 0-3.40625-4.738281-9.371094-9.4375-15.285156-7.65625-9.640626-15.242187-19.1875-13.15625-30.675782 2.117188-11.683594 12.824219-17.90625 23.460938-24.09375 6.28125-3.652344 12.527344-7.285156 13.507812-9.921875.984376-2.644531-1.453124-9.53125-3.886718-16.394531-4.054688-11.441406-8.097656-22.84375-2.242188-32.835938 5.871094-10.023437 17.871094-12.042968 29.851563-14.058593 7.0625-1.191407 14.113281-2.378907 15.84375-4.429688 1.730469-2.054687 1.699219-9.214843 1.664062-16.375-.054687-12.128906-.109375-24.261719 8.695313-31.683593 8.851562-7.464844 20.773437-5.382813 32.710937-3.292969 7.113281 1.242187 14.234375 2.488281 16.546875 1.132812 2.3125-1.351562 4.734375-8.128906 7.160156-14.925781 4.101563-11.480469 8.222657-23.007812 19.214844-27.101562 10.871094-4.046876 21.484375 1.851562 32.160156 7.78125 6.457032 3.585937 12.945313 7.191406 15.96875 6.640624 2.957032-.535156 7.78125-6.046874 12.644532-11.605468 8.222656-9.390625 16.519531-18.871094 28.539062-18.871094zm123.921875 129.175781c-5.523437 0-10 4.476563-10 10 0 2.460938.890625 4.714844 2.367188 6.457031v.003907l-.003907-.003907.03125.035157c.203126.238281.417969.464843.640626.679687 26.894531 28.671875 43.363281 67.238282 43.363281 109.652344 0 44.273438-17.941407 84.351562-46.953125 113.363281-29.011719 29.015625-69.09375 46.957031-113.367188 46.957031-18.953125 0-37.136718-3.289062-54.011718-9.328124-.300782-.125-.613282-.234376-.929688-.332032l-.023438-.011718v.003906c-.917968-.277344-1.894531-.429688-2.902343-.429688-5.519531 0-10 4.476563-10 10 0 4.53125 3.015625 8.355469 7.144531 9.585938 18.972656 6.785156 39.417969 10.484375 60.722656 10.484375 49.785156 0 94.859375-20.183594 127.484375-52.808594 32.628907-32.628906 52.808594-77.699219 52.808594-127.484375 0-47.640625-18.480469-90.960938-48.65625-123.191406-1.835937-2.21875-4.609375-3.632813-7.714844-3.632813zm-30.179687-25.382812c-5.519532 0-10 4.476562-10 10 0 5.519531 4.480468 10 10 10 5.523437 0 10-4.480469 10-10 0-5.523438-4.476563-10-10-10zm-32.457032-17.398438c-19.132812-6.914062-39.765624-10.6875-61.285156-10.6875-49.785156 0-94.855468 20.179688-127.484375 52.808594-32.625 32.625-52.808593 77.699219-52.808593 127.484375 0 47.539062 18.402343 90.777344 48.464843 122.988281 1.835938 2.195313 4.59375 3.59375 7.679688 3.59375 5.523437 0 10-4.476562 10-10 0-2.453125-.882813-4.699219-2.351563-6.4375v-.007812l-.039062-.042969c-.195313-.230469-.402344-.449219-.617188-.65625-26.773437-28.652344-43.164062-67.128906-43.164062-109.4375 0-44.273438 17.945312-84.355469 46.957031-113.363281 29.011719-29.015625 69.09375-46.957031 113.363281-46.957031 19.132813 0 37.480469 3.351562 54.492188 9.5h.003906c1.203125.511718 2.523438.792968 3.914062.792968 5.523438 0 10-4.476562 10-10 0-4.523437-3.003906-8.34375-7.125-9.578125zm-155.027343 301.8125c-5.519531 0-10 4.476563-10 10 0 5.523438 4.480469 10 10 10 5.523437 0 10-4.476562 10-10 0-5.523437-4.476563-10-10-10zm35.523437-230.488281c-11.464844 0-21.84375 4.644531-29.359375 12.160156-7.511719 7.515625-12.160156 17.894532-12.160156 29.359375 0 11.460938 4.648437 21.84375 12.160156 29.355469 7.515625 7.515625 17.894531 12.164062 29.359375 12.164062s21.84375-4.648437 29.359375-12.164062c7.511719-7.511719 12.160157-17.894531 12.160157-29.355469 0-11.464843-4.648438-21.84375-12.160157-29.359375-7.515625-7.515625-17.894531-12.160156-29.359375-12.160156zm15.238282 26.28125c-3.898438-3.898438-9.285157-6.3125-15.238282-6.3125-5.949218 0-11.339844 2.414062-15.238281 6.3125s-6.308594 9.285156-6.308594 15.238281c0 5.949219 2.410157 11.339844 6.308594 15.238281 3.898437 3.894532 9.289063 6.308594 15.238281 6.308594 5.953125 0 11.339844-2.410156 15.238282-6.308594 3.898437-3.898437 6.308593-9.289062 6.308593-15.238281 0-5.953125-2.410156-11.339843-6.308593-15.238281zm92.894531-21.757812-116.441407 176.59375c-3.015624 4.589843-1.742187 10.753906 2.847657 13.769531 4.589843 3.015625 10.753906 1.742187 13.769531-2.847657l116.441406-176.59375c3.015625-4.589843 1.742188-10.753906-2.847656-13.769531s-10.753906-1.742187-13.769531 2.847657zm8.308593 109c-11.464843 0-21.847656 4.648437-29.359374 12.160156-7.511719 7.515625-12.160157 17.898437-12.160157 29.359375 0 11.464843 4.648438 21.84375 12.160157 29.359375 7.515624 7.511718 17.894531 12.160156 29.359374 12.160156 11.464844 0 21.84375-4.648438 29.355469-12.160156 7.515625-7.515625 12.164063-17.894532 12.164063-29.359375 0-11.464844-4.648438-21.84375-12.164063-29.359375-7.511719-7.511719-17.890625-12.160156-29.355469-12.160156zm15.234376 26.28125c-3.894532-3.894532-9.285157-6.308594-15.234376-6.308594-5.953124 0-11.339843 2.410156-15.238281 6.308594-3.898437 3.898437-6.3125 9.289062-6.3125 15.238281 0 5.953125 2.414063 11.339843 6.3125 15.238281 3.898438 3.898438 9.285157 6.308594 15.238281 6.308594 5.949219 0 11.339844-2.410156 15.234376-6.308594 3.902343-3.898438 6.3125-9.285156 6.3125-15.238281 0-5.949219-2.410157-11.335938-6.3125-15.238281zm-59.894532-265.542969c-5.230468-5.976563-10.507812-12.007813-13.558594-12.007813-3.054687 0-8.332031 6.03125-13.5625 12.007813-7.160156 8.179687-14.261718 16.292969-24.113281 18.082031-10 1.816406-19.601562-3.519531-29.152343-8.828125-6.65625-3.699219-13.277344-7.375-15.542969-6.53125-2.234375.832031-4.800781 8.011719-7.355469 15.164063-3.636719 10.175781-7.257812 20.320312-15.898438 25.378906-8.699218 5.097656-19.378906 3.230468-30.042968 1.363281-7.363282-1.285156-14.722656-2.574219-16.402344-1.152344-1.742188 1.46875-1.710938 8.933594-1.675781 16.394531.050781 10.839844.097656 21.679688-6.347657 29.324219-6.425781 7.621094-17.097656 9.417969-27.78125 11.214844-7.394531 1.246094-14.808593 2.492187-15.960937 4.464844-1.148437 1.957031 1.359375 9.039062 3.878906 16.140625 3.625 10.230468 7.261719 20.492187 3.730469 29.96875-3.484375 9.355468-12.800781 14.773437-22.167969 20.222656-6.679687 3.882812-13.402343 7.792969-13.867187 10.363281-.472656 2.605469 4.332031 8.652344 9.179687 14.757813 6.875 8.652344 13.808594 17.378906 13.808594 27.691406 0 10.316406-6.933594 19.039062-13.808594 27.695312-4.847656 6.101563-9.652343 12.148438-9.179687 14.757813.464844 2.570313 7.1875 6.476563 13.867187 10.363281 9.367188 5.445313 18.683594 10.863282 22.167969 20.21875 3.53125 9.480469-.105469 19.742188-3.730469 29.972656-2.519531 7.101563-5.027343 14.179688-3.878906 16.140626 1.152344 1.96875 8.5625 3.21875 15.960937 4.460937 10.6875 1.800781 21.355469 3.59375 27.78125 11.21875 6.445313 7.640625 6.398438 18.480469 6.347657 29.324219-.035157 7.460937-.066407 14.921875 1.675781 16.394531 1.683594 1.417969 9.039062.132813 16.402344-1.15625 10.664062-1.863281 21.34375-3.734375 30.042968 1.363281 8.640626 5.058594 12.265626 15.203125 15.898438 25.378906 2.554688 7.152344 5.121094 14.335938 7.355469 15.164063 2.265625.84375 8.886719-2.832031 15.542969-6.53125 9.550781-5.304687 19.152343-10.640625 29.152343-8.824219 9.855469 1.785156 16.953125 9.898438 24.113281 18.082032 5.230469 5.976562 10.507813 12.007812 13.5625 12.007812 3.050782 0 8.328126-6.03125 13.558594-12.007812 7.160156-8.183594 14.261719-16.296876 24.109375-18.082032 10-1.816406 19.605469 3.519532 29.15625 8.824219 6.65625 3.699219 13.277344 7.375 15.542969 6.53125 2.234375-.828125 4.800781-8.011719 7.355469-15.164063 3.636719-10.175781 7.257812-20.316406 15.894531-25.378906 8.703125-5.097656 19.378906-3.230468 30.042969-1.363281 7.367187 1.289063 14.722656 2.578125 16.410156 1.15625 1.738281-1.472656 1.707031-8.933594 1.671875-16.394531-.050781-10.839844-.097656-21.683594 6.347656-29.324219 6.425782-7.625 17.09375-9.417969 27.777344-11.21875 7.398438-1.242187 14.8125-2.492187 15.964844-4.460937 1.148437-1.960938-1.359375-9.039063-3.878906-16.140626-3.625-10.230468-7.261719-20.492187-3.730469-29.972656 3.480469-9.355468 12.800781-14.773437 22.164062-20.21875 6.683594-3.886718 13.402344-7.792968 13.871094-10.363281.472656-2.609375-4.332031-8.65625-9.179687-14.757813-6.875-8.65625-13.808594-17.378906-13.808594-27.695312 0-10.3125 6.933594-19.039062 13.808594-27.691406 4.847656-6.105469 9.652343-12.152344 9.179687-14.757813-.46875-2.570312-7.1875-6.480469-13.871094-10.363281-9.363281-5.449219-18.683593-10.867188-22.164062-20.222656-3.53125-9.476563.105469-19.738282 3.730469-29.96875 2.519531-7.101563 5.027343-14.183594 3.878906-16.140625-1.152344-1.972657-8.566406-3.21875-15.964844-4.464844-10.683594-1.796875-21.351562-3.59375-27.777344-11.214844-6.445312-7.644531-6.398437-18.484375-6.347656-29.324219.035156-7.460937.066406-14.925781-1.671875-16.394531-1.6875-1.421875-9.042969-.132812-16.410156 1.152344-10.664063 1.867187-21.339844 3.734375-30.039063-1.363281-8.640625-5.058594-12.265625-15.203125-15.898437-25.378906-2.554688-7.152344-5.121094-14.332032-7.355469-15.164063-2.265625-.84375-8.886719 2.832031-15.542969 6.53125-9.554687 5.308594-19.15625 10.644531-29.15625 8.828125-9.851562-1.789062-16.949219-9.902344-24.109375-18.082031zm0 0" fill-rule="evenodd"/>
	</symbol>

	<symbol id="smartphone" viewBox="0 0 512 512">
		<g>
			<g>
				<path d="M298.667,25.6h-85.333c-4.71,0-8.533,3.823-8.533,8.533c0,4.71,3.823,8.533,8.533,8.533h85.333
					c4.71,0,8.533-3.823,8.533-8.533C307.2,29.423,303.377,25.6,298.667,25.6z"/>
			</g>
		</g>
		<g>
			<g>
				<path d="M358.4,25.6h-8.533c-4.71,0-8.533,3.823-8.533,8.533c0,4.71,3.823,8.533,8.533,8.533h8.533
					c4.71,0,8.533-3.823,8.533-8.533C366.933,29.423,363.11,25.6,358.4,25.6z"/>
			</g>
		</g>
		<g>
			<g>
				<path d="M266.598,435.2H245.41c-12.979,0-23.543,10.564-23.543,23.543v4.122c0,12.979,10.564,23.535,23.535,23.535h21.188
					c12.979,0,23.543-10.556,23.543-23.535v-4.122C290.133,445.764,279.569,435.2,266.598,435.2z M273.067,462.865
					c0,3.567-2.901,6.468-6.468,6.468H245.41c-3.575,0-6.477-2.901-6.477-6.468v-4.122c0-3.575,2.901-6.477,6.477-6.477h21.18
					c3.576,0,6.477,2.901,6.477,6.477V462.865z"/>
			</g>
		</g>
		<g>
			<g>
				<path d="M370.227,0H141.781c-17.007,0-30.848,13.841-30.848,30.848v450.304c0,17.007,13.841,30.848,30.848,30.848h228.437
					c17.007,0,30.848-13.841,30.848-30.839V30.848C401.067,13.841,387.226,0,370.227,0z M384,481.152
					c0,7.595-6.178,13.781-13.773,13.781H141.781c-7.603,0-13.781-6.187-13.781-13.773V30.848c0-7.595,6.178-13.781,13.781-13.781
					h228.437c7.603,0,13.781,6.187,13.781,13.781V481.152z"/>
			</g>
		</g>
		<g>
			<g>
				<path d="M392.533,51.2H119.467c-4.71,0-8.533,3.823-8.533,8.533v358.4c0,4.71,3.823,8.533,8.533,8.533h273.067
					c4.71,0,8.533-3.823,8.533-8.533v-358.4C401.067,55.023,397.244,51.2,392.533,51.2z M384,409.6H128V68.267h256V409.6z"/>
			</g>
		</g>
	</symbol>

	<symbol id="person-icon" viewBox="0 0 512 512">
		<g>
			<g>
				<path d="M421.054,414.843c-4.142,0-7.5,3.358-7.5,7.5v70.514c0,2.283-1.858,4.141-4.141,4.141h-40.317V349.301
					c0-4.142-3.358-7.5-7.5-7.5c-4.142,0-7.5,3.358-7.5,7.5v147.698h-81.185l23.543-25.9c2.572-2.83,3.785-6.861,3.244-10.787
					c-0.01-0.076-0.022-0.152-0.035-0.228L277.24,327.617l6.041-9.094c3.34,2.372,5.913,4.656,10.738,4.656
					c4.908,0,9.497-2.747,11.755-7.269v-0.001l23.65-47.4l53.876,20.865c1.949,0.836,30.252,13.582,30.252,47.238v50.73
					c-0.001,4.141,3.357,7.5,7.5,7.5c4.142,0,7.5-3.358,7.5-7.5v-50.73c0-44.344-37.969-60.463-39.585-61.128
					c-0.047-0.02-0.095-0.039-0.143-0.057l-89.668-34.726v-21.03c14.242-11.076,24.117-27.495,26.596-46.227
					c7.101-0.5,13.69-3.152,19.071-7.779c7.027-6.043,11.059-14.838,11.059-24.126c0-7.708-2.781-15.068-7.737-20.803V92.953
					C348.144,41.699,306.446,0,255.192,0c-51.254,0-92.952,41.699-92.952,92.953v28.511c-5.009,5.677-7.733,12.665-7.733,20.074
					c0,9.291,4.03,18.085,11.059,24.129c5.377,4.625,11.962,7.274,19.061,7.775c2.499,19.083,12.662,36.114,28.117,47.339v19.92
					l-89.571,34.725c-0.047,0.018-0.094,0.037-0.141,0.056c-1.617,0.665-39.585,16.784-39.585,61.128v156.245
					c0,10.555,8.587,19.142,19.142,19.142h71.457c4.142,0,7.5-3.358,7.5-7.5c0-4.142-3.358-7.5-7.5-7.5h-16.137V349.301
					c0-4.142-3.358-7.5-7.5-7.5c-4.142,0-7.5,3.358-7.5,7.5v147.698h-40.319c-2.283,0-4.141-1.858-4.141-4.141V336.611
					c0-33.769,28.493-46.486,30.243-47.234l53.834-20.87l23.652,47.402c2.263,4.533,6.858,7.27,11.756,7.27
					c4.801,0,7.349-2.249,10.738-4.656l6.041,9.094l-22.421,132.468c-0.013,0.075-0.024,0.15-0.035,0.226
					c-0.542,3.924,0.671,7.957,3.244,10.789l23.543,25.9h-29.995c-4.142,0-7.5,3.358-7.5,7.5s3.358,7.5,7.5,7.5h200.365
					c10.555,0,19.142-8.588,19.142-19.142v-70.514C428.554,418.201,425.196,414.843,421.054,414.843z M315.375,263.069l-22.049,44.19
					c-0.548-0.389-12.233-8.691-26.517-18.834c6.198-7.651-1.053,1.299,27.235-33.617L315.375,263.069z M271.043,309.833l-5.718,8.607
					h-18.703l-5.718-8.607l15.07-10.703L271.043,309.833z M227.743,243.121v-14.036c9.112,3.673,18.85,5.376,28.36,5.376
					c9.833,0,19.476-2.096,28.052-5.846v14.567l-28.181,34.785L227.743,243.121z M340.881,141.539
					c-0.001,4.913-2.129,9.562-5.839,12.753c-2.453,2.11-5.416,3.459-8.661,3.987v-33.477
					C335.001,126.202,340.881,133.352,340.881,141.539z M184.007,158.279c-8.718-1.415-14.5-8.623-14.5-16.741
					c0-8.018,6.647-14.544,14.5-16.359V158.279z M184.41,109.896c-2.389,0.274-5.127,0.921-7.168,1.615V92.953
					c0-42.983,34.968-77.952,77.951-77.952c42.983,0,77.951,34.969,77.951,77.952v18.043c-2.18-0.663-4.441-1.101-6.762-1.307
					c0-7.237,0.063-5.841-23.612-31.294c-4.354-4.678-11.556-5.658-17.037-2.077c-26.13,17.069-58.005,25.644-87.415,23.532
					C191.867,99.367,185.991,103.616,184.41,109.896z M199.008,164.184v-46.792v-2.465c32.375,1.896,66.318-7.722,93.739-25.283
					c10.858,11.658,16.738,17.773,18.634,20.099c0,5.884,0,47.705,0,54.44c0,30.447-24.826,55.276-55.277,55.276
					C221.91,219.46,199.008,192.934,199.008,164.184z M218.623,307.259l-22.049-44.19l21.293-8.247l27.241,33.625
					C231.255,298.284,219.88,306.366,218.623,307.259z M227.228,461.702l21.709-128.263h14.071l21.709,128.263l-28.744,31.623
					L227.228,461.702z"/>
			</g>
		</g>
	</symbol>

	<symbol id="mail-icon" viewBox="0 0 510 510">
		<g>
			<g>
				<path d="M459,51H51C22.95,51,0,73.95,0,102v306c0,28.05,22.95,51,51,51h408c28.05,0,51-22.95,51-51V102
					C510,73.95,487.05,51,459,51z M459,153L255,280.5L51,153v-51l204,127.5L459,102V153z"/>
			</g>
		</g>
	</symbol>

	<symbol id="telephone-icon" viewBox="0 0 401.998 401.998">
		<g>
			<path d="M401.129,311.475c-1.137-3.426-8.371-8.473-21.697-15.129c-3.61-2.098-8.754-4.949-15.41-8.566
				c-6.662-3.617-12.709-6.95-18.13-9.996c-5.432-3.045-10.521-5.995-15.276-8.846c-0.76-0.571-3.139-2.234-7.136-5
				c-4.001-2.758-7.375-4.805-10.14-6.14c-2.759-1.327-5.473-1.995-8.138-1.995c-3.806,0-8.56,2.714-14.268,8.135
				c-5.708,5.428-10.944,11.324-15.7,17.706c-4.757,6.379-9.802,12.275-15.126,17.7c-5.332,5.427-9.713,8.138-13.135,8.138
				c-1.718,0-3.86-0.479-6.427-1.424c-2.566-0.951-4.518-1.766-5.858-2.423c-1.328-0.671-3.607-1.999-6.845-4.004
				c-3.244-1.999-5.048-3.094-5.428-3.285c-26.075-14.469-48.438-31.029-67.093-49.676c-18.649-18.658-35.211-41.019-49.676-67.097
				c-0.19-0.381-1.287-2.19-3.284-5.424c-2-3.237-3.333-5.518-3.999-6.854c-0.666-1.331-1.475-3.283-2.425-5.852
				s-1.427-4.709-1.427-6.424c0-3.424,2.713-7.804,8.138-13.134c5.424-5.327,11.326-10.373,17.7-15.128
				c6.379-4.755,12.275-9.991,17.701-15.699c5.424-5.711,8.136-10.467,8.136-14.273c0-2.663-0.666-5.378-1.997-8.137
				c-1.332-2.765-3.378-6.139-6.139-10.138c-2.762-3.997-4.427-6.374-4.999-7.139c-2.852-4.755-5.799-9.846-8.848-15.271
				c-3.049-5.424-6.377-11.47-9.995-18.131c-3.615-6.658-6.468-11.799-8.564-15.415C98.986,9.233,93.943,1.997,90.516,0.859
				C89.183,0.288,87.183,0,84.521,0c-5.142,0-11.85,0.95-20.129,2.856c-8.282,1.903-14.799,3.899-19.558,5.996
				c-9.517,3.995-19.604,15.605-30.264,34.826C4.863,61.566,0.01,79.271,0.01,96.78c0,5.135,0.333,10.131,0.999,14.989
				c0.666,4.853,1.856,10.326,3.571,16.418c1.712,6.09,3.093,10.614,4.137,13.56c1.045,2.948,2.996,8.229,5.852,15.845
				c2.852,7.614,4.567,12.275,5.138,13.988c6.661,18.654,14.56,35.307,23.695,49.964c15.03,24.362,35.541,49.539,61.521,75.521
				c25.981,25.98,51.153,46.49,75.517,61.526c14.655,9.134,31.314,17.032,49.965,23.698c1.714,0.568,6.375,2.279,13.986,5.141
				c7.614,2.854,12.897,4.805,15.845,5.852c2.949,1.048,7.474,2.43,13.559,4.145c6.098,1.715,11.566,2.905,16.419,3.576
				c4.856,0.657,9.853,0.996,14.989,0.996c17.508,0,35.214-4.856,53.105-14.562c19.219-10.656,30.826-20.745,34.823-30.269
				c2.102-4.754,4.093-11.273,5.996-19.555c1.909-8.278,2.857-14.985,2.857-20.126C401.99,314.814,401.703,312.819,401.129,311.475z"
				/>
		</g>
	</symbol>

	<symbol id="restaraun-icon" viewBox="0 0 463 463">
		<g>
			<g>
				<g>
					<path d="M463,187.5v-74c0-5.238-4.262-9.5-9.5-9.5H447V79.5c0-12.958-10.542-23.5-23.5-23.5H343v-0.5
						c0-12.958-10.542-23.5-23.5-23.5h-176C130.542,32,120,42.542,120,55.5V56H39.5C26.542,56,16,66.542,16,79.5V104H9.5
						c-5.238,0-9.5,4.262-9.5,9.5v74c0,12.376,6.37,23.288,16,29.644V416H7.5c-4.142,0-7.5,3.358-7.5,7.5c0,4.142,3.358,7.5,7.5,7.5
						h448c4.142,0,7.5-3.358,7.5-7.5c0-4.142-3.358-7.5-7.5-7.5H447V217.144C456.63,210.788,463,199.876,463,187.5z M135,55.5
						c0-4.687,3.813-8.5,8.5-8.5h176c4.687,0,8.5,3.813,8.5,8.5v7.961c0,0.013-0.002,0.025-0.002,0.039
						c0,0.006,0.001,0.013,0.001,0.02C327.988,68.197,324.18,72,319.5,72h-176c-4.687,0-8.5-3.813-8.5-8.5V55.5z M31,79.5
						c0-4.687,3.813-8.5,8.5-8.5h81.734c3.138,9.29,11.93,16,22.266,16h176c10.336,0,19.128-6.71,22.266-16H423.5
						c4.687,0,8.5,3.813,8.5,8.5V104H31V79.5z M392,119v68.5c0,11.304-9.196,20.5-20.5,20.5c-11.304,0-20.5-9.196-20.5-20.5V119H392z
						 M336,119v68.5c0,11.304-9.196,20.5-20.5,20.5c-11.304,0-20.5-9.196-20.5-20.5V119H336z M280,119v68.5
						c0,11.304-9.196,20.5-20.5,20.5c-11.304,0-20.5-9.196-20.5-20.5V119H280z M224,119v68.5c0,11.304-9.196,20.5-20.5,20.5
						s-20.5-9.196-20.5-20.5V119H224z M168,119v68.5c0,11.304-9.196,20.5-20.5,20.5s-20.5-9.196-20.5-20.5V119H168z M112,119v68.5
						c0,11.304-9.196,20.5-20.5,20.5S71,198.804,71,187.5V119H112z M15,187.5V119h41v68.5c0,11.304-9.196,20.5-20.5,20.5
						S15,198.804,15,187.5z M144,416H63v-17h81V416z M144,384H63V255h81V384z M432,416H159V247.5c0-4.142-3.358-7.5-7.5-7.5h-96
						c-4.142,0-7.5,3.358-7.5,7.5V416H31V222.705c1.475,0.188,2.975,0.295,4.5,0.295c11.368,0,21.498-5.378,28-13.716
						C70.002,217.622,80.132,223,91.5,223s21.498-5.378,28-13.716c6.502,8.338,16.632,13.716,28,13.716s21.498-5.378,28-13.716
						c6.502,8.338,16.632,13.716,28,13.716s21.498-5.378,28-13.716c6.502,8.338,16.632,13.716,28,13.716s21.498-5.378,28-13.716
						c6.502,8.338,16.632,13.716,28,13.716c11.368,0,21.498-5.378,28-13.716c6.502,8.338,16.632,13.716,28,13.716
						c11.368,0,21.498-5.378,28-13.716c6.502,8.338,16.632,13.716,28,13.716c1.525,0,3.025-0.107,4.5-0.295V416z M427.5,208
						c-11.304,0-20.5-9.196-20.5-20.5V119h41v68.5C448,198.804,438.804,208,427.5,208z"/>
					<path d="M407.5,240h-224c-4.142,0-7.5,3.358-7.5,7.5v144c0,4.142,3.358,7.5,7.5,7.5h224c4.142,0,7.5-3.358,7.5-7.5v-144
						C415,243.358,411.642,240,407.5,240z M400,384h-49v-25h24.5c4.142,0,7.5-3.358,7.5-7.5c0-4.142-3.358-7.5-7.5-7.5h-64
						c-4.142,0-7.5,3.358-7.5,7.5c0,4.142,3.358,7.5,7.5,7.5H336v25h-81v-25h24.5c4.142,0,7.5-3.358,7.5-7.5
						c0-4.142-3.358-7.5-7.5-7.5h-64c-4.142,0-7.5,3.358-7.5,7.5c0,4.142,3.358,7.5,7.5,7.5H240v25h-49V255h49v9.909
						c-13.759,3.375-24,15.806-24,30.591c0,4.142,3.358,7.5,7.5,7.5H240v0.5c0,4.142,3.358,7.5,7.5,7.5c4.142,0,7.5-3.358,7.5-7.5V303
						h16.5c4.142,0,7.5-3.358,7.5-7.5c0-14.785-10.241-27.216-24-30.591V255h81v9.909c-13.759,3.375-24,15.806-24,30.591
						c0,4.142,3.358,7.5,7.5,7.5H336v0.5c0,4.142,3.358,7.5,7.5,7.5c4.142,0,7.5-3.358,7.5-7.5V303h16.5c4.142,0,7.5-3.358,7.5-7.5
						c0-14.785-10.241-27.216-24-30.591V255h49V384z M247.5,279c6.4,0,11.959,3.662,14.695,9h-29.39
						C235.54,282.662,241.1,279,247.5,279z M343.5,279c6.4,0,11.959,3.662,14.695,9h-29.39C331.54,282.662,337.1,279,343.5,279z"/>
					<path d="M127.5,343c4.142,0,7.5-3.358,7.5-7.5v-16c0-4.142-3.358-7.5-7.5-7.5c-4.142,0-7.5,3.358-7.5,7.5v16
						C120,339.642,123.358,343,127.5,343z"/>
				</g>
			</g>
		</g>
	</symbol>

	<symbol id="student-icon" viewBox="0 0 512.005 512.005">
		<g>
			<g>
				<g>
					<path d="M307.204,255.997c17.237,0,31.394-12.894,33.664-29.525l31.189-23.381c3.772-2.825,4.54-8.175,1.707-11.947
						c-2.825-3.772-8.175-4.548-11.947-1.707l-21.751,16.316c-3.251-10.402-12.86-18.022-24.328-18.022h-34.133
						c-14.114,0-25.6,11.486-25.6,25.6c0-14.114-11.486-25.6-25.6-25.6H196.27c-11.469,0-21.077,7.62-24.329,18.022l-21.751-16.316
						c-3.763-2.825-9.122-2.057-11.947,1.707c-2.833,3.772-2.065,9.122,1.707,11.947l31.189,23.381
						c2.27,16.631,16.418,29.525,33.664,29.525h17.067c18.825,0,34.133-15.309,34.133-34.133c0,18.825,15.309,34.133,34.133,34.133
						H307.204z M238.937,221.864c0,9.412-7.663,17.067-17.067,17.067h-17.067c-9.404,0-17.067-7.654-17.067-17.067v-8.533
						c0-4.702,3.823-8.533,8.533-8.533h34.133c4.71,0,8.533,3.831,8.533,8.533V221.864z M273.07,221.864v-8.533
						c0-4.702,3.823-8.533,8.533-8.533h34.133c4.71,0,8.533,3.831,8.533,8.533v8.533c0,9.412-7.663,17.067-17.067,17.067h-17.067
						C280.733,238.93,273.07,231.276,273.07,221.864z"/>
					<path d="M511.748,501.39l-8.721-34.756c-4.378-13.158-30.285-55.484-178.756-56.636v-8.934c0-4.71-3.814-8.533-8.533-8.533
						s-8.533,3.823-8.533,8.533v17.067c0,0.06,0.034,0.111,0.034,0.171c0,0.051-0.034,0.094-0.034,0.154
						c-0.034,5.205-1.749,50.876-51.2,50.876c-49.451,0-51.166-45.986-51.2-51.2v-17.067c0-4.71-3.814-8.533-8.533-8.533
						s-8.533,3.823-8.533,8.533v8.619C77.162,410.553,21.789,428.2,8.793,467.257L0.26,501.39c-1.152,4.574,1.638,9.207,6.212,10.351
						c4.557,1.161,9.199-1.638,10.342-6.204l8.346-33.51c9.916-29.739,63.317-44.595,163.14-45.338
						c3.098,24.431,19.703,59.708,67.703,59.708c47.974,0,64.589-35.063,67.703-59.366c116.958,0.862,157.619,28.467,162.953,44.373
						l8.533,34.133c0.973,3.874,4.446,6.46,8.269,6.46c0.683,0,1.382-0.077,2.074-0.256
						C510.109,510.597,512.891,505.964,511.748,501.39z"/>
					<path d="M58.636,42.595l196.267,25.6c0.367,0.043,0.734,0.068,1.101,0.068s0.734-0.026,1.101-0.068L443.737,43.85v29.628
						c-5.35,6.016-17.067,21.026-17.067,37.453c0,18.782,15.309,25.6,25.6,25.6s25.6-6.818,25.6-25.6
						c0-16.427-11.716-31.437-17.067-37.453V34.13c0-1.126-0.239-2.193-0.64-3.183c-0.145-0.35-0.393-0.623-0.58-0.947
						c-0.333-0.597-0.666-1.186-1.126-1.681c-0.299-0.316-0.657-0.529-0.998-0.785c-0.486-0.393-0.964-0.768-1.527-1.041
						c-0.418-0.205-0.862-0.29-1.314-0.418c-0.418-0.128-0.794-0.35-1.246-0.41l-196.267-25.6c-0.734-0.085-1.468-0.085-2.202,0
						l-196.267,25.6c-4.25,0.555-7.432,4.181-7.432,8.465C51.204,38.414,54.387,42.041,58.636,42.595z M460.804,110.93
						c0,6.81-4.617,8.405-8.533,8.533c-3.917-0.128-8.533-1.724-8.533-8.533c0-7.083,4.352-14.985,8.533-20.813
						C456.452,95.946,460.804,103.848,460.804,110.93z M256.004,17.132L386.299,34.13L256.004,51.129L125.708,34.13L256.004,17.132z"
						/>
					<path d="M275.673,309.603c-0.273,0.247-6.707,6.127-19.669,6.127c-12.774,0-19.209-5.709-19.652-6.118
						c-3.319-3.251-8.67-3.226-11.981,0.085c-3.337,3.337-3.337,8.73,0,12.066c1.126,1.126,11.605,11.034,31.633,11.034
						s30.507-9.907,31.633-11.034c3.294-3.294,3.285-8.567,0.051-11.913C284.437,306.506,279.078,306.412,275.673,309.603z"/>
					<path d="M119.47,172.123c-9.933,3.524-17.067,13.013-17.067,24.141v34.133c0,11.904,8.166,21.939,19.2,24.789
						c4.565,13.466,17.178,49.98,24.371,64.358c13.551,27.11,51.977,72.986,110.029,72.986c58.052,0,96.478-45.875,110.029-72.986
						c7.194-14.379,19.806-50.893,24.371-64.358c11.034-2.85,19.2-12.885,19.2-24.789v-34.133c0-11.127-7.134-20.617-17.067-24.141
						v-9.992c0-4.71-3.814-8.533-8.533-8.533s-8.533,3.823-8.533,8.533v17.067c0,4.71,3.814,8.533,8.533,8.533
						c4.71,0,8.533,3.831,8.533,8.533v34.133c0,4.702-3.823,8.533-8.533,8.533c-3.678,0-6.938,2.347-8.09,5.837
						c-0.179,0.503-16.981,50.816-25.139,67.149c-1.306,2.594-32.495,63.548-94.771,63.548s-93.466-60.954-94.771-63.548
						c-8.166-16.333-24.96-66.645-25.139-67.149c-1.161-3.49-4.412-5.837-8.09-5.837c-4.71,0-8.533-3.831-8.533-8.533v-34.133
						c0-4.702,3.823-8.533,8.533-8.533c4.719,0,8.533-3.823,8.533-8.533V162.13c0-4.71-3.814-8.533-8.533-8.533
						s-8.533,3.823-8.533,8.533V172.123z"/>
					<path d="M128.004,59.73c-4.719,0-8.533,3.823-8.533,8.533v59.733c0,3.234,1.826,6.187,4.719,7.637
						c2.167,1.075,53.896,26.496,131.814,26.496s129.647-25.421,131.814-26.496c2.893-1.451,4.719-4.403,4.719-7.637V68.264
						c0-4.71-3.814-8.533-8.533-8.533s-8.533,3.823-8.533,8.533v54.212c-14.114,5.982-58.778,22.588-119.467,22.588
						s-105.353-16.606-119.467-22.588V68.264C136.537,63.553,132.723,59.73,128.004,59.73z"/>
				</g>
			</g>
		</g>
	</symbol>

	<symbol id="document-icon" viewBox="0 0 256.61 256.61">
		<g>
			<g id="_x38_7_36_">
				<g>
					<path d="M60.859,112.533c-6.853,0-6.853,10.646,0,10.646c27.294,0,54.583,0,81.875,0c6.865,0,6.865-10.646,0-10.646
						C115.442,112.533,88.153,112.533,60.859,112.533z"/>
					<path d="M142.734,137.704c-27.292,0-54.581,0-81.875,0c-6.853,0-6.853,10.634,0,10.634c27.294,0,54.583,0,81.875,0
						C149.6,148.338,149.6,137.704,142.734,137.704z"/>
					<path d="M142.734,161.018c-27.292,0-54.581,0-81.875,0c-6.853,0-6.853,10.633,0,10.633c27.294,0,54.583,0,81.875,0
						C149.6,171.65,149.6,161.018,142.734,161.018z"/>
					<path d="M142.734,186.184c-27.292,0-54.581,0-81.875,0c-6.853,0-6.853,10.629,0,10.629c27.294,0,54.583,0,81.875,0
						C149.6,196.812,149.6,186.184,142.734,186.184z"/>
					<path d="M141.17,209.934c-27.302,0-54.601,0-81.89,0c-6.848,0-6.848,10.633,0,10.633c27.289,0,54.588,0,81.89,0
						C148.015,220.566,148.015,209.934,141.17,209.934z"/>
					<path d="M25.362,58.087V256.61h152.877V85.63l-28.406-27.543H25.362z M165.026,243.393H38.585V71.305h104.443v20.97h21.988
						v151.118H165.026z"/>
					<polygon points="51.204,27.667 51.204,50.645 64.427,50.645 64.427,40.88 168.875,40.88 168.875,61.85 190.868,61.85 
						190.868,212.971 185.059,212.971 185.059,226.188 204.086,226.188 204.086,55.205 175.68,27.667 			"/>
				</g>
			</g>
		</g>
	</symbol>

	<symbol id="work-icon" viewBox="0 0 480 480">
		<g>
			<g>
				<path d="M447.2,416.728c5.661-7.002,8.765-15.724,8.8-24.728v-16c0-22.091-17.909-40-40-40c-22.091,0-40,17.909-40,40v16
					c0.035,9.004,3.139,17.726,8.8,24.728c-9.933,1.847-18.796,7.394-24.8,15.52c-6.004-8.126-14.867-13.673-24.8-15.52
					c5.661-7.002,8.765-15.724,8.8-24.728v-16c0-22.091-17.909-40-40-40c-22.091,0-40,17.909-40,40v16
					c0.035,9.004,3.139,17.726,8.8,24.728c-9.933,1.847-18.796,7.394-24.8,15.52c-6.004-8.126-14.867-13.673-24.8-15.52
					c5.661-7.002,8.765-15.724,8.8-24.728v-16c0-22.091-17.909-40-40-40s-40,17.909-40,40v16c0.035,9.004,3.139,17.726,8.8,24.728
					c-18.971,3.471-32.764,19.986-32.8,39.272v24h16v-24c0-13.255,10.745-24,24-24h48c13.255,0,24,10.745,24,24v24h16v-24
					c0-13.255,10.745-24,24-24h48c13.255,0,24,10.745,24,24v24h16v-24c0-13.255,10.745-24,24-24h48c13.255,0,24,10.745,24,24v24h16
					v-24C479.964,436.714,466.171,420.199,447.2,416.728z M216,392c0,13.255-10.745,24-24,24s-24-10.745-24-24v-16
					c0-13.255,10.745-24,24-24s24,10.745,24,24V392z M328,392c0,13.255-10.745,24-24,24s-24-10.745-24-24v-16
					c0-13.255,10.745-24,24-24s24,10.745,24,24V392z M440,392c0,13.255-10.745,24-24,24s-24-10.745-24-24v-16
					c0-13.255,10.745-24,24-24s24,10.745,24,24V392z"/>
			</g>
		</g>
		<g>
			<g>
				<path d="M194.926,160.558c-0.932-0.368-1.924-0.557-2.926-0.558h-32c-3.364-0.001-6.369,2.103-7.52,5.264l-8.48,23.32l-0.28-0.76
					C137.614,171.146,121.761,160.04,104,160h-0.208c5.294-6.883,8.179-15.316,8.208-24v-16c0-22.091-17.909-40-40-40
					s-40,17.909-40,40v16c0.029,8.684,2.914,17.117,8.208,24H40c-22.08,0.026-39.974,17.92-40,40v96c0,4.418,3.582,8,8,8h24v77.6
					l-14.656,21.96c-2.452,3.675-1.461,8.643,2.215,11.095C20.874,415.532,22.419,416,24,416h96c4.418,0.001,8.001-3.581,8.001-7.999
					c0-1.581-0.468-3.126-1.345-4.441L112,381.6V233.888l2.016,4c8.084,16.157,27.734,22.702,43.891,14.618
					c7.16-3.582,12.757-9.666,15.733-17.098l12.992-32.472l12.8-32C201.054,166.826,199.036,162.18,194.926,160.558z M48,120
					c0-13.255,10.745-24,24-24s24,10.745,24,24v16c0,13.255-10.745,24-24,24s-24-10.745-24-24V120z M32,288H16v-16h16V288z M80,400
					v-96H64v96H38.952l7.704-11.56c0.874-1.316,1.341-2.86,1.344-4.44v-96h48v96c0.003,1.58,0.47,3.124,1.344,4.44l7.704,11.56H80z
					 M158.784,229.504c-3.434,8.567-13.163,12.729-21.73,9.295c-3.793-1.52-6.897-4.377-8.726-8.031L111.2,196.424
					c-1.925-3.977-6.71-5.64-10.687-3.714c-2.79,1.351-4.548,4.191-4.513,7.29v72H48v-72c0-4.418-3.582-8-8-8s-8,3.582-8,8v56H16v-56
					c0-13.255,10.745-24,24-24h24v80h16v-80h24c11.036,0.022,20.888,6.923,24.68,17.288l7.8,21.448
					c1.507,4.153,6.096,6.298,10.249,4.791c2.228-0.808,3.982-2.563,4.791-4.791l2.448-6.736h13.416L158.784,229.504z M173.784,192
					h-14l5.816-16h14.584L173.784,192z"/>
			</g>
		</g>
		<g>
			<g>
				<path d="M472,48c4.418,0,8-3.582,8-8V8c0-4.418-3.582-8-8-8H136c-4.418,0-8,3.582-8,8v32c0,4.418,3.582,8,8,8h8v96h16V48h288v176
					H192v16h104v35.36l-52,29.696l7.936,13.888L296,293.784V320h16v-26.216l44,25.16l7.936-13.888L312,275.36V240h168v-16h-16V48H472z
					 M144,32V16h320v16H144z"/>
			</g>
		</g>
		<g>
			<g>
				<path d="M393.944,88.24l-32-8l-3.888,15.52l14.984,3.744l-60.72,42.504L277,113.752c-2.797-2.234-6.737-2.339-9.648-0.256l-56,40
					l9.296,13.008l51.08-36.48L307,158.248c2.776,2.225,6.688,2.349,9.6,0.304l67.4-47.184V128h16V96
					C400,92.331,397.503,89.132,393.944,88.24z"/>
			</g>
		</g>
	</symbol>

	<symbol id="pin-icon" width="24" height="24" viewBox="0 0 512 512">
		<g>
			<g>
				<path d="M256,0C161.896,0,85.333,76.563,85.333,170.667c0,28.25,7.063,56.26,20.49,81.104L246.667,506.5
					c1.875,3.396,5.448,5.5,9.333,5.5s7.458-2.104,9.333-5.5l140.896-254.813c13.375-24.76,20.438-52.771,20.438-81.021
					C426.667,76.563,350.104,0,256,0z M256,256c-47.052,0-85.333-38.281-85.333-85.333c0-47.052,38.281-85.333,85.333-85.333
					s85.333,38.281,85.333,85.333C341.333,217.719,303.052,256,256,256z"/>
			</g>
		</g>
	</symbol>
	
	<symbol id="people-group" viewBox="0 80 500 350">
		<g>
			<g>
			<path d="M344.214,276.755l-43.582-19.37c-3.079-1.368-5.067-4.429-5.067-7.797V237.62c14.64-11.665,24.05-29.628,24.05-49.758
				v-16.847c4.823-2.665,8.016-7.815,8.016-13.583v-1.635c0-35.076-28.537-63.613-63.613-63.613h-16.032
				c-35.076,0-63.613,28.537-63.613,63.613v14.835c0,5.07,2.182,9.663,5.985,12.602c0.645,0.498,1.324,0.936,2.031,1.315v3.312
				c0,20.13,9.409,38.093,24.048,49.757v11.969c0,3.368-1.989,6.429-5.067,7.797l-43.582,19.37
				c-14.273,6.343-23.496,20.535-23.496,36.154v99.404c0,4.142,3.358,7.5,7.5,7.5c4.142,0,7.5-3.358,7.5-7.5v-99.403
				c0-0.869,0.062-1.728,0.152-2.58l20.082,20.082c3.125,3.126,4.847,7.281,4.847,11.702v70.2c0,4.142,3.358,7.5,7.5,7.5
				c4.142,0,7.5-3.358,7.5-7.5v-70.2c0-8.427-3.281-16.349-9.24-22.308l-23.941-23.942c2.157-2.238,4.745-4.093,7.689-5.402
				l42.847-19.043l31.775,31.775v109.119c0,4.142,3.358,7.5,7.5,7.5s7.5-3.358,7.5-7.5V303.194l31.775-31.775l42.846,19.042
				c2.944,1.309,5.532,3.164,7.689,5.403l-23.941,23.941c-5.959,5.959-9.24,13.881-9.24,22.308v70.2c0,4.142,3.358,7.5,7.5,7.5
				c4.142,0,7.5-3.358,7.5-7.5v-70.2c0-4.42,1.721-8.576,4.847-11.702l20.081-20.081c0.09,0.852,0.152,1.709,0.152,2.578v99.404
				c0,4.142,3.358,7.5,7.5,7.5c4.142,0,7.5-3.358,7.5-7.5v-99.403C367.709,297.29,358.487,283.098,344.214,276.755z M256,289.481
				l-27.881-27.882c2.12-3.567,3.317-7.694,3.317-12.011v-3.052c7.563,3.178,15.862,4.939,24.565,4.939s17.001-1.76,24.563-4.938
				v3.051c0,4.318,1.197,8.444,3.318,12.012L256,289.481z M256.001,236.474c-26.805,0.001-48.613-21.807-48.613-48.612v-3.373
				c4.68-1.855,9.248-4.807,13.621-8.842c3.043-2.809,3.234-7.554,0.424-10.598c-2.809-3.043-7.553-3.234-10.598-0.425
				c-3.751,3.463-7.499,5.7-11.137,6.65c-0.088,0.023-0.153,0.033-0.199,0.037c-0.054-0.105-0.127-0.325-0.127-0.678v-14.835
				c0-26.805,21.808-48.613,48.613-48.613h16.032c26.806,0,48.613,21.808,48.613,48.613v1.635c0,0.243-0.146,0.454-0.338,0.492
				c-44.911,8.87-67.437-7.847-75.037-15.447c-2.929-2.929-7.678-2.929-10.606,0c-2.929,2.929-2.929,7.678,0,10.606
				c23.29,23.29,57.275,23.71,77.965,21.224v13.553C304.614,214.666,282.806,236.474,256.001,236.474z"/>
			</g>
		</g>
		<g>
			<g>
				<path d="M135.242,235.961v-16.035c0-19.566-10.168-36.79-25.489-46.702c0.946-3.035,1.44-6.214,1.44-9.411
				c0-17.396-14.152-31.548-31.548-31.548s-31.548,14.153-31.548,31.548c0,3.237,0.49,6.385,1.438,9.413
				c-15.32,9.911-25.487,27.135-25.487,46.7v16.032c0,18.947,9.533,35.701,24.048,45.743v16.493c0,3.253-1.807,6.177-4.716,7.632
				l-25.941,12.97C6.682,324.176,0,334.988,0,347.015v65.299c0,4.142,3.358,7.5,7.5,7.5s7.5-3.358,7.5-7.5v-62.055l12.218,12.218
				c3.125,3.126,4.847,7.281,4.847,11.702v38.135c0,4.142,3.358,7.5,7.5,7.5c4.142,0,7.5-3.358,7.5-7.5v-38.135
				c0-8.427-3.282-16.349-9.24-22.308L20.82,334.866c-0.082-0.082-0.17-0.153-0.254-0.23c1.067-0.942,2.264-1.762,3.582-2.422
				l25.941-12.97c1.329-0.665,2.566-1.45,3.719-2.322l18.337,18.338v77.055c0,4.142,3.358,7.5,7.5,7.5c4.142,0,7.5-3.358,7.5-7.5
				v-77.056l18.338-18.338c1.154,0.873,2.39,1.658,3.719,2.322l7.153,3.577c1.077,0.539,2.221,0.794,3.349,0.794
				c2.751,0,5.4-1.52,6.714-4.147c1.853-3.705,0.351-8.21-3.354-10.062l-7.153-3.577c-2.91-1.455-4.717-4.379-4.717-7.631v-16.493
				C125.709,271.662,135.242,254.907,135.242,235.961z M79.645,147.265c9.125,0,16.548,7.424,16.548,16.548
				c0,1.005-0.09,1.99-0.262,2.955c-5.154-1.582-10.621-2.439-16.286-2.439c-5.657,0-11.117,0.854-16.263,2.432
				c-0.173-0.965-0.285-1.945-0.285-2.948C63.097,154.688,70.52,147.265,79.645,147.265z M79.645,179.33
				c22.385,0,40.597,18.212,40.597,40.597v2.718c-31.225,9.56-49.834-14.193-50.629-15.234c-1.305-1.739-3.3-2.827-5.468-2.981
				c-2.168-0.152-4.298,0.641-5.835,2.178c-7.159,7.159-14.171,10.612-19.235,12.279C39.63,196.981,57.609,179.33,79.645,179.33z
				M79.645,321.545l-17.331-17.331c0.506-1.934,0.783-3.95,0.783-6.019v-9.155c5.229,1.634,10.788,2.515,16.548,2.515
				s11.319-0.881,16.548-2.515v9.155c0,2.069,0.277,4.086,0.783,6.019L79.645,321.545z M79.645,276.555
				c-22.385,0-40.597-18.212-40.597-40.597v-1.554c5.981-1.374,14.849-4.567,24.1-12.007c3.273,3.088,7.951,6.876,13.908,10.125
				c7.046,3.843,16.777,7.398,28.663,7.398c4.517,0,9.35-0.525,14.459-1.731C119.015,259.541,101.281,276.555,79.645,276.555z"/>
			</g>
		</g>
		<g>
			<g>
				<path d="M494.561,302.765l-41.973-20.987c-2.909-1.455-4.716-4.379-4.716-7.631v-10.629c9.825-8.723,16.032-21.435,16.032-35.575
				v-8.537c0.173,0,0.343,0.005,0.516,0.005c4.142,0,7.5-3.358,7.5-7.5v-16.032c0-26.236-21.345-47.581-47.581-47.581h-16.032
				c-26.236,0-47.581,21.345-47.581,47.581v16.032c0,4.142,3.358,7.5,7.5,7.5c0.062,0,0.242-0.002,0.516-0.013v8.545
				c0,14.141,6.208,26.853,16.033,35.576v10.629c0,3.253-1.807,6.177-4.717,7.631c-3.705,1.852-5.207,6.357-3.354,10.062
				c1.314,2.628,3.963,4.148,6.714,4.148c1.127,0,2.271-0.255,3.348-0.793c1.329-0.665,2.566-1.45,3.719-2.322l18.338,18.338v101.103
				c0,4.142,3.358,7.5,7.5,7.5c4.142,0,7.5-3.358,7.5-7.5V311.21l18.337-18.338c1.154,0.873,2.39,1.658,3.719,2.322l40.615,20.308
				l-12.319,12.319c-5.958,5.959-9.24,13.881-9.24,22.308v62.184c0,4.142,3.358,7.5,7.5,7.5c4.142,0,7.5-3.358,7.5-7.5v-62.184
				c0-4.42,1.721-8.576,4.847-11.702l11.669-11.669c0.354,1.357,0.548,2.772,0.548,4.224v81.331c0,4.142,3.358,7.5,7.5,7.5
				c4.142,0,7.5-3.358,7.5-7.5v-81.331C512,318.956,505.318,308.144,494.561,302.765z M375.725,202.868v-6.99h0.001
				c0-17.965,14.616-32.581,32.581-32.581h16.032c17.965,0,32.581,14.616,32.581,32.581v8.331
				c-32.603-1.759-52.278-14.446-52.469-14.571c-1.269-0.846-2.717-1.26-4.158-1.26c-1.936,0-3.856,0.748-5.306,2.197
				C387.811,197.751,380.78,201.205,375.725,202.868z M416.323,297.497l-17.331-17.331c0.506-1.934,0.783-3.95,0.783-6.019v-1.597
				c5.156,1.919,10.731,2.973,16.548,2.973c5.817,0,11.392-1.054,16.548-2.973v1.597c0,2.069,0.276,4.085,0.783,6.019
				L416.323,297.497z M416.323,260.524c-17.965,0-32.581-14.615-32.581-32.581v-12.091h0c5.253-2.099,11.373-5.436,17.601-10.742
				c7.876,4.098,24.354,11.181,47.561,13.521v9.312C448.904,245.908,434.288,260.524,416.323,260.524z"/>
			</g>
		</g>
	</symbol>

</svg>